<svg xmlns="http://www.w3.org/2000/svg" xmlns:xlink="http://www.w3.org/1999/xlink" width="500" zoomAndPan="magnify" viewBox="0 0 375 374.999991" height="500" preserveAspectRatio="xMidYMid meet" version="1.0"><defs><g/><clipPath id="43d898d5ca"><path d="M 166.8125 79.871094 L 349.414062 79.871094 L 349.414062 262.472656 L 166.8125 262.472656 Z M 166.8125 79.871094 " clip-rule="nonzero"/></clipPath><clipPath id="45709d8e81"><path d="M 160.460938 74.632812 L 355.761719 74.632812 L 355.761719 131.167969 L 160.460938 131.167969 Z M 160.460938 74.632812 " clip-rule="nonzero"/></clipPath><clipPath id="28b82e46d4"><path d="M 26.132812 131.167969 L 149.070312 131.167969 L 149.070312 254.101562 L 26.132812 254.101562 Z M 26.132812 131.167969 " clip-rule="nonzero"/></clipPath><clipPath id="b7c09a0fad"><path d="M 70.835938 133.082031 L 104.367188 133.082031 L 104.367188 191.535156 L 70.835938 191.535156 Z M 70.835938 133.082031 " clip-rule="nonzero"/></clipPath></defs><path stroke-linecap="butt" transform="matrix(0.75, 0, 0, 0.75, 19.23674, 264.457864)" fill="none" stroke-linejoin="miter" d="M 0.00205527 9.49889 L 448.700001 9.49889 " stroke="#a5845a" stroke-width="19" stroke-opacity="1" stroke-miterlimit="4"/><g clip-path="url(#43d898d5ca)"><path fill="#ba9c7d" d="M 166.8125 79.871094 L 349.414062 79.871094 L 349.414062 262.472656 L 166.8125 262.472656 Z M 166.8125 79.871094 " fill-opacity="1" fill-rule="nonzero"/></g><g clip-path="url(#45709d8e81)"><path fill="#a2855c" d="M 160.460938 74.632812 L 355.691406 74.632812 L 355.691406 131.167969 L 160.460938 131.167969 Z M 160.460938 74.632812 " fill-opacity="1" fill-rule="nonzero"/></g><path stroke-linecap="butt" transform="matrix(0.000000001309, 0.75, -0.75, 0.000000001309, 100.357988, 271.585295)" fill="none" stroke-linejoin="miter" d="M 0.000856696 9.498151 L 38.381068 9.498151 " stroke="#a5845a" stroke-width="19" stroke-opacity="1" stroke-miterlimit="4"/><path stroke-linecap="butt" transform="matrix(0.000000001309, 0.75, -0.75, 0.000000001309, 300.932622, 271.585295)" fill="none" stroke-linejoin="miter" d="M 0.000856696 9.498705 L 38.381068 9.498705 " stroke="#a5845a" stroke-width="19" stroke-opacity="1" stroke-miterlimit="4"/><g clip-path="url(#28b82e46d4)"><path fill="#bba17d" d="M 26.132812 131.167969 L 149.070312 131.167969 L 149.070312 254.101562 L 26.132812 254.101562 Z M 26.132812 131.167969 " fill-opacity="1" fill-rule="nonzero"/></g><g fill="#000000" fill-opacity="1"><g transform="translate(178.154086, 240.517758)"><g><path d="M 1.171875 0 L 1.171875 -0.421875 L 2.890625 -0.421875 C 3.492188 -0.421875 4.003906 -0.570312 4.421875 -0.875 C 4.847656 -1.1875 5.0625 -1.941406 5.0625 -3.140625 L 5.0625 -26.75 C 5.0625 -27.863281 4.84375 -28.585938 4.40625 -28.921875 C 3.976562 -29.253906 3.472656 -29.421875 2.890625 -29.421875 L 1.171875 -29.421875 L 1.171875 -29.84375 L 13.375 -29.84375 C 17.332031 -29.84375 20.3125 -29.210938 22.3125 -27.953125 C 24.320312 -26.703125 25.328125 -24.878906 25.328125 -22.484375 C 25.328125 -20.335938 24.550781 -18.734375 23 -17.671875 C 21.457031 -16.617188 19.222656 -16.007812 16.296875 -15.84375 L 16.296875 -15.75 C 19.585938 -15.695312 22.125 -15.03125 23.90625 -13.75 C 25.6875 -12.46875 26.578125 -10.5625 26.578125 -8.03125 C 26.578125 -2.675781 22.59375 0 14.625 0 Z M 11.65625 -15.84375 L 13.25 -15.84375 C 15.0625 -15.84375 16.359375 -16.363281 17.140625 -17.40625 C 17.921875 -18.445312 18.3125 -20.195312 18.3125 -22.65625 C 18.3125 -25.101562 17.921875 -26.84375 17.140625 -27.875 C 16.359375 -28.90625 15.035156 -29.421875 13.171875 -29.421875 L 11.65625 -29.421875 Z M 11.65625 -0.421875 L 14.421875 -0.421875 C 16.285156 -0.421875 17.609375 -0.988281 18.390625 -2.125 C 19.171875 -3.269531 19.5625 -5.207031 19.5625 -7.9375 C 19.5625 -10.644531 19.171875 -12.566406 18.390625 -13.703125 C 17.609375 -14.847656 16.3125 -15.421875 14.5 -15.421875 L 11.65625 -15.421875 Z M 11.65625 -0.421875 "/></g></g></g><g fill="#000000" fill-opacity="1"><g transform="translate(206.239498, 240.517758)"><g><path d="M 13 0.421875 C 9.375 0.421875 6.628906 -0.578125 4.765625 -2.578125 C 2.898438 -4.585938 1.96875 -7.421875 1.96875 -11.078125 C 1.96875 -15.003906 2.863281 -17.960938 4.65625 -19.953125 C 6.457031 -21.953125 9.015625 -22.953125 12.328125 -22.953125 C 15.367188 -22.953125 17.757812 -22.097656 19.5 -20.390625 C 21.238281 -18.691406 22.109375 -16.1875 22.109375 -12.875 L 22.109375 -11.875 L 8.40625 -11.875 C 8.40625 -7.632812 8.835938 -4.601562 9.703125 -2.78125 C 10.566406 -0.957031 11.984375 -0.046875 13.953125 -0.046875 C 15.410156 -0.046875 16.660156 -0.523438 17.703125 -1.484375 C 18.742188 -2.441406 19.40625 -4.066406 19.6875 -6.359375 C 20.238281 -6.242188 20.632812 -6.003906 20.875 -5.640625 C 21.113281 -5.273438 21.234375 -4.859375 21.234375 -4.390625 C 21.234375 -3.578125 20.925781 -2.804688 20.3125 -2.078125 C 19.695312 -1.359375 18.78125 -0.757812 17.5625 -0.28125 C 16.351562 0.1875 14.832031 0.421875 13 0.421875 Z M 8.40625 -12.28125 L 15.75 -12.28125 C 15.75 -14.789062 15.648438 -16.796875 15.453125 -18.296875 C 15.265625 -19.804688 14.921875 -20.890625 14.421875 -21.546875 C 13.921875 -22.203125 13.222656 -22.53125 12.328125 -22.53125 C 10.960938 -22.53125 9.972656 -21.769531 9.359375 -20.25 C 8.742188 -18.726562 8.425781 -16.070312 8.40625 -12.28125 Z M 8.40625 -12.28125 "/></g></g></g><g fill="#000000" fill-opacity="1"><g transform="translate(230.103736, 240.517758)"><g><path d="M 10.65625 0.421875 C 8.34375 0.421875 6.503906 0.125 5.140625 -0.46875 C 3.773438 -1.070312 2.785156 -1.832031 2.171875 -2.75 C 1.554688 -3.675781 1.25 -4.613281 1.25 -5.5625 C 1.25 -6.476562 1.472656 -7.207031 1.921875 -7.75 C 2.367188 -8.289062 2.953125 -8.6875 3.671875 -8.9375 C 4.398438 -9.195312 5.171875 -9.328125 5.984375 -9.328125 C 5.984375 -6.753906 6.222656 -4.800781 6.703125 -3.46875 C 7.191406 -2.132812 7.851562 -1.222656 8.6875 -0.734375 C 9.53125 -0.242188 10.492188 0 11.578125 0 C 13.242188 0 14.613281 -0.441406 15.6875 -1.328125 C 16.757812 -2.222656 17.296875 -3.5625 17.296875 -5.34375 C 17.296875 -6.625 17.003906 -7.695312 16.421875 -8.5625 C 15.835938 -9.425781 14.992188 -10.175781 13.890625 -10.8125 C 12.796875 -11.457031 11.46875 -12.101562 9.90625 -12.75 C 7.957031 -13.550781 6.410156 -14.390625 5.265625 -15.265625 C 4.117188 -16.148438 3.300781 -17.128906 2.8125 -18.203125 C 2.332031 -19.273438 2.09375 -20.492188 2.09375 -21.859375 C 2.09375 -24.390625 3.046875 -26.421875 4.953125 -27.953125 C 6.859375 -29.492188 9.5 -30.265625 12.875 -30.265625 C 15.519531 -30.265625 17.570312 -29.796875 19.03125 -28.859375 C 20.5 -27.921875 21.234375 -26.785156 21.234375 -25.453125 C 21.234375 -24.453125 20.800781 -23.613281 19.9375 -22.9375 C 19.070312 -22.269531 17.789062 -21.9375 16.09375 -21.9375 C 16.09375 -24.644531 15.75 -26.625 15.0625 -27.875 C 14.382812 -29.132812 13.222656 -29.765625 11.578125 -29.765625 C 10.847656 -29.765625 10.117188 -29.625 9.390625 -29.34375 C 8.671875 -29.0625 8.070312 -28.570312 7.59375 -27.875 C 7.125 -27.175781 6.890625 -26.1875 6.890625 -24.90625 C 6.890625 -23.851562 7.125 -22.914062 7.59375 -22.09375 C 8.070312 -21.269531 8.851562 -20.5 9.9375 -19.78125 C 11.03125 -19.070312 12.507812 -18.34375 14.375 -17.59375 C 17.269531 -16.425781 19.332031 -15.164062 20.5625 -13.8125 C 21.789062 -12.457031 22.40625 -10.765625 22.40625 -8.734375 C 22.40625 -6.921875 21.941406 -5.332031 21.015625 -3.96875 C 20.097656 -2.601562 18.769531 -1.53125 17.03125 -0.75 C 15.289062 0.03125 13.164062 0.421875 10.65625 0.421875 Z M 10.65625 0.421875 "/></g></g></g><g fill="#000000" fill-opacity="1"><g transform="translate(254.594864, 240.517758)"><g><path d="M 0.703125 0 L 0.703125 -0.421875 L 1.21875 -0.421875 C 1.632812 -0.421875 2.070312 -0.484375 2.53125 -0.609375 C 2.988281 -0.734375 3.378906 -0.984375 3.703125 -1.359375 C 4.023438 -1.734375 4.1875 -2.328125 4.1875 -3.140625 L 4.1875 -28.796875 C 4.1875 -29.546875 4.015625 -30.101562 3.671875 -30.46875 C 3.335938 -30.832031 2.941406 -31.066406 2.484375 -31.171875 C 2.023438 -31.285156 1.601562 -31.34375 1.21875 -31.34375 L 0.703125 -31.34375 L 0.703125 -31.765625 L 10.53125 -31.765625 L 10.53125 -23.359375 C 10.53125 -22.554688 10.53125 -21.753906 10.53125 -20.953125 C 10.53125 -20.160156 10.515625 -19.363281 10.484375 -18.5625 L 10.578125 -18.5625 C 10.910156 -19.8125 11.390625 -20.75 12.015625 -21.375 C 12.640625 -22 13.351562 -22.414062 14.15625 -22.625 C 14.96875 -22.84375 15.78125 -22.953125 16.59375 -22.953125 C 19.039062 -22.953125 20.863281 -22.304688 22.0625 -21.015625 C 23.257812 -19.734375 23.859375 -17.6875 23.859375 -14.875 L 23.859375 -3.390625 C 23.859375 -2.078125 24.085938 -1.253906 24.546875 -0.921875 C 25.015625 -0.585938 25.722656 -0.421875 26.671875 -0.421875 L 26.796875 -0.421875 L 26.796875 0 L 17.515625 0 L 17.515625 -16.265625 C 17.515625 -18.066406 17.269531 -19.421875 16.78125 -20.328125 C 16.289062 -21.234375 15.488281 -21.6875 14.375 -21.6875 C 12.894531 -21.6875 11.882812 -20.945312 11.34375 -19.46875 C 10.800781 -18 10.53125 -16.09375 10.53125 -13.75 L 10.53125 -3.140625 C 10.53125 -2.328125 10.691406 -1.734375 11.015625 -1.359375 C 11.335938 -0.984375 11.726562 -0.734375 12.1875 -0.609375 C 12.644531 -0.484375 13.082031 -0.421875 13.5 -0.421875 L 14 -0.421875 L 14 0 Z M 0.703125 0 "/></g></g></g><g fill="#000000" fill-opacity="1"><g transform="translate(282.471292, 240.517758)"><g><path d="M 13 0.421875 C 9.375 0.421875 6.628906 -0.578125 4.765625 -2.578125 C 2.898438 -4.585938 1.96875 -7.421875 1.96875 -11.078125 C 1.96875 -15.003906 2.863281 -17.960938 4.65625 -19.953125 C 6.457031 -21.953125 9.015625 -22.953125 12.328125 -22.953125 C 15.367188 -22.953125 17.757812 -22.097656 19.5 -20.390625 C 21.238281 -18.691406 22.109375 -16.1875 22.109375 -12.875 L 22.109375 -11.875 L 8.40625 -11.875 C 8.40625 -7.632812 8.835938 -4.601562 9.703125 -2.78125 C 10.566406 -0.957031 11.984375 -0.046875 13.953125 -0.046875 C 15.410156 -0.046875 16.660156 -0.523438 17.703125 -1.484375 C 18.742188 -2.441406 19.40625 -4.066406 19.6875 -6.359375 C 20.238281 -6.242188 20.632812 -6.003906 20.875 -5.640625 C 21.113281 -5.273438 21.234375 -4.859375 21.234375 -4.390625 C 21.234375 -3.578125 20.925781 -2.804688 20.3125 -2.078125 C 19.695312 -1.359375 18.78125 -0.757812 17.5625 -0.28125 C 16.351562 0.1875 14.832031 0.421875 13 0.421875 Z M 8.40625 -12.28125 L 15.75 -12.28125 C 15.75 -14.789062 15.648438 -16.796875 15.453125 -18.296875 C 15.265625 -19.804688 14.921875 -20.890625 14.421875 -21.546875 C 13.921875 -22.203125 13.222656 -22.53125 12.328125 -22.53125 C 10.960938 -22.53125 9.972656 -21.769531 9.359375 -20.25 C 8.742188 -18.726562 8.425781 -16.070312 8.40625 -12.28125 Z M 8.40625 -12.28125 "/></g></g></g><g fill="#000000" fill-opacity="1"><g transform="translate(306.335529, 240.517758)"><g><path d="M 0.703125 0 L 0.703125 -0.421875 L 1.21875 -0.421875 C 1.632812 -0.421875 2.070312 -0.484375 2.53125 -0.609375 C 2.988281 -0.734375 3.378906 -0.984375 3.703125 -1.359375 C 4.023438 -1.734375 4.1875 -2.328125 4.1875 -3.140625 L 4.1875 -28.796875 C 4.1875 -29.546875 4.015625 -30.101562 3.671875 -30.46875 C 3.335938 -30.832031 2.941406 -31.066406 2.484375 -31.171875 C 2.023438 -31.285156 1.601562 -31.34375 1.21875 -31.34375 L 0.703125 -31.34375 L 0.703125 -31.765625 L 10.53125 -31.765625 L 10.53125 -3.140625 C 10.53125 -2.328125 10.691406 -1.734375 11.015625 -1.359375 C 11.335938 -0.984375 11.726562 -0.734375 12.1875 -0.609375 C 12.644531 -0.484375 13.082031 -0.421875 13.5 -0.421875 L 14 -0.421875 L 14 0 Z M 0.703125 0 "/></g></g></g><g fill="#000000" fill-opacity="1"><g transform="translate(321.046941, 240.517758)"><g><path d="M 0.796875 0 L 0.796875 -0.421875 L 1.71875 -0.421875 C 2.132812 -0.421875 2.570312 -0.484375 3.03125 -0.609375 C 3.488281 -0.734375 3.878906 -0.984375 4.203125 -1.359375 C 4.523438 -1.734375 4.6875 -2.328125 4.6875 -3.140625 L 4.6875 -21.984375 L 0.96875 -21.984375 L 0.96875 -22.40625 L 4.6875 -22.40625 L 4.6875 -23.953125 C 4.6875 -26.546875 5.375 -28.554688 6.75 -29.984375 C 8.125 -31.421875 10.5 -32.140625 13.875 -32.140625 C 16.15625 -32.140625 17.773438 -31.835938 18.734375 -31.234375 C 19.703125 -30.640625 20.1875 -29.894531 20.1875 -29 C 20.1875 -27.25 18.472656 -26.375 15.046875 -26.375 C 15.046875 -28.40625 14.898438 -29.800781 14.609375 -30.5625 C 14.316406 -31.332031 13.796875 -31.71875 13.046875 -31.71875 C 12.285156 -31.71875 11.757812 -31.351562 11.46875 -30.625 C 11.175781 -29.90625 11.03125 -28.585938 11.03125 -26.671875 L 11.03125 -22.40625 L 16.796875 -22.40625 L 16.796875 -21.984375 L 11.03125 -21.984375 L 11.03125 -3.140625 C 11.03125 -2.328125 11.191406 -1.734375 11.515625 -1.359375 C 11.835938 -0.984375 12.226562 -0.734375 12.6875 -0.609375 C 13.144531 -0.484375 13.582031 -0.421875 14 -0.421875 L 15.96875 -0.421875 L 15.96875 0 Z M 0.796875 0 "/></g></g></g><g clip-path="url(#b7c09a0fad)"><path fill="#a48459" d="M 70.835938 133.082031 L 104.367188 133.082031 L 104.367188 191.496094 L 70.835938 191.496094 Z M 70.835938 133.082031 " fill-opacity="1" fill-rule="nonzero"/></g></svg>